<svg width="200" height="40" viewBox="0 0 200 40" xmlns="http://www.w3.org/2000/svg">
  <defs>
    <linearGradient id="logoGradient" x1="0%" y1="0%" x2="100%" y2="100%">
      <stop offset="0%" style="stop-color:#D4AF37;stop-opacity:1" />
      <stop offset="100%" style="stop-color:#B8860B;stop-opacity:1" />
    </linearGradient>
  </defs>
  
  <!-- Parachute icon -->
  <g transform="translate(5, 5)">
    <!-- Canopy -->
    <path d="M8 12 Q15 4 22 12 Q20 16 18 18 L16 16 Q15 10 11 16 L9 18 Q7 16 8 12 Z" 
          fill="url(#logoGradient)" stroke="#8B7355" stroke-width="0.5"/>
    <!-- Lines -->
    <line x1="9" y1="17" x2="13" y2="26" stroke="#8B7355" stroke-width="0.5"/>
    <line x1="11" y1="18" x2="13" y2="26" stroke="#8B7355" stroke-width="0.5"/>
    <line x1="15" y1="18" x2="15" y2="26" stroke="#8B7355" stroke-width="0.5"/>
    <line x1="19" y1="18" x2="17" y2="26" stroke="#8B7355" stroke-width="0.5"/>
    <line x1="21" y1="17" x2="17" y2="26" stroke="#8B7355" stroke-width="0.5"/>
    <!-- Package -->
    <rect x="13" y="26" width="4" height="3" fill="url(#logoGradient)" stroke="#8B7355" stroke-width="0.5"/>
    <circle cx="15" cy="27.5" r="0.8" fill="#2A2A2A"/>
  </g>
  
  <!-- Text -->
  <text x="45" y="15" font-family="system-ui, -apple-system, sans-serif" font-size="14" font-weight="700" fill="url(#logoGradient)">AsterDrop</text>
  <text x="45" y="28" font-family="system-ui, -apple-system, sans-serif" font-size="8" fill="#8B8680">Airdrop Monitoring Extension</text>
</svg>