<svg viewBox="0 0 100 100" xmlns="http://www.w3.org/2000/svg">
  <defs>
    <linearGradient id="parachuteGrad" x1="0%" y1="0%" x2="100%" y2="100%">
      <stop offset="0%" style="stop-color:#F5DEB3;stop-opacity:1" />
      <stop offset="100%" style="stop-color:#DEB887;stop-opacity:1" />
    </linearGradient>
    <linearGradient id="boxGrad" x1="0%" y1="0%" x2="100%" y2="100%">
      <stop offset="0%" style="stop-color:#D4AF37;stop-opacity:1" />
      <stop offset="100%" style="stop-color:#B8860B;stop-opacity:1" />
    </linearGradient>
  </defs>
  
  <!-- Parachute canopy -->
  <path d="M50 15 C30 15, 15 25, 15 35 C15 45, 30 50, 50 50 C70 50, 85 45, 85 35 C85 25, 70 15, 50 15 Z" fill="url(#parachuteGrad)" stroke="#B8860B" stroke-width="1"/>
  
  <!-- Parachute segments -->
  <path d="M30 25 Q50 45, 70 25" fill="none" stroke="#B8860B" stroke-width="0.5"/>
  <path d="M25 30 Q50 48, 75 30" fill="none" stroke="#B8860B" stroke-width="0.5"/>
  <path d="M20 35 Q50 50, 80 35" fill="none" stroke="#B8860B" stroke-width="0.5"/>
  
  <!-- Parachute lines -->
  <line x1="20" y1="42" x2="45" y2="70" stroke="#8B7355" stroke-width="0.8"/>
  <line x1="35" y1="48" x2="48" y2="70" stroke="#8B7355" stroke-width="0.8"/>
  <line x1="50" y1="50" x2="50" y2="70" stroke="#8B7355" stroke-width="0.8"/>
  <line x1="65" y1="48" x2="52" y2="70" stroke="#8B7355" stroke-width="0.8"/>
  <line x1="80" y1="42" x2="55" y2="70" stroke="#8B7355" stroke-width="0.8"/>
  
  <!-- Box/package -->
  <rect x="45" y="70" width="10" height="8" fill="url(#boxGrad)" stroke="#8B4513" stroke-width="0.5"/>
  <rect x="47" y="72" width="6" height="4" fill="#F5DEB3" stroke="#8B4513" stroke-width="0.3"/>
  
  <!-- Small decorative elements -->
  <circle cx="25" cy="20" r="1" fill="#F5DEB3" opacity="0.7"/>
  <circle cx="75" cy="18" r="0.8" fill="#F5DEB3" opacity="0.7"/>
  <circle cx="15" cy="28" r="0.6" fill="#F5DEB3" opacity="0.5"/>
  <circle cx="85" cy="25" r="0.8" fill="#F5DEB3" opacity="0.6"/>
</svg>